/* XPM */
static char * cdrom_xpm[] = {
"16 16 116 2",
"  	c None",
". 	c #DBE1E5",
"+ 	c #E7EBEE",
"@ 	c #EBEEF1",
"# 	c #F5F6F8",
"$ 	c #ECEFF2",
"% 	c #D5DCE1",
"& 	c #D3DADF",
"* 	c #F0F2F4",
"= 	c #E9ECF1",
"- 	c #E0E4EA",
"; 	c #E6E9EF",
"> 	c #FBFCFD",
", 	c #FAFBFC",
"' 	c #F8FAFC",
") 	c #E8ECF0",
"! 	c #D2D9DE",
"~ 	c #F1F2F5",
"{ 	c #DFE3EA",
"] 	c #E7EAF0",
"^ 	c #F9FAFC",
"/ 	c #F7F8FB",
"( 	c #F6F8FB",
"_ 	c #F5F8FC",
": 	c #EEF2F6",
"< 	c #EEF0F3",
"[ 	c #E8EBF1",
"} 	c #F8F9FB",
"| 	c #F6F8FA",
"1 	c #F5F7FB",
"2 	c #F4F7FD",
"3 	c #D7DEE3",
"4 	c #E5E8EC",
"5 	c #E4E7ED",
"6 	c #D7DFE1",
"7 	c #EFF2F5",
"8 	c #F4F6FA",
"9 	c #F4F6FB",
"0 	c #F6F9FE",
"a 	c #F1F4FB",
"b 	c #EBEFF6",
"c 	c #D9DDE4",
"d 	c #D8E0E2",
"e 	c #FDFDFD",
"f 	c #F6F8F8",
"g 	c #DEE5E7",
"h 	c #F0F5FB",
"i 	c #F1F6FD",
"j 	c #EEF3FA",
"k 	c #EBF0F7",
"l 	c #D1D8DF",
"m 	c #E7EAEE",
"n 	c #D3DBDF",
"o 	c #FAFBFB",
"p 	c #E1E9E9",
"q 	c #E7ECED",
"r 	c #E4EBF1",
"s 	c #EFF4FB",
"t 	c #ECF1F8",
"u 	c #E9EEF5",
"v 	c #D3DAE0",
"w 	c #E5E9EE",
"x 	c #D3DCDF",
"y 	c #E0E8E8",
"z 	c #E9EEEF",
"A 	c #E5ECF1",
"B 	c #E8EDF4",
"C 	c #D3DBE1",
"D 	c #DFE3E8",
"E 	c #DAE0E7",
"F 	c #DAE2E4",
"G 	c #FDFEFE",
"H 	c #FAFAFA",
"I 	c #D5DEE1",
"J 	c #F0F5FC",
"K 	c #EDF2F9",
"L 	c #EAEFF6",
"M 	c #E7EBF2",
"N 	c #CFD6DC",
"O 	c #D7DDE3",
"P 	c #E0E4EB",
"Q 	c #E5E9EF",
"R 	c #E9EDF2",
"S 	c #DCE2E5",
"T 	c #D9E1E6",
"U 	c #F3F8FF",
"V 	c #E4E9F0",
"W 	c #DBE0E6",
"X 	c #E3E7EE",
"Y 	c #E9EDF3",
"Z 	c #EFF2F6",
"` 	c #F2F5FA",
" .	c #E8ECF3",
"..	c #CAD3D9",
"+.	c #DEE3EA",
"@.	c #E6EAF0",
"#.	c #ECF0F5",
"$.	c #F1F4F9",
"%.	c #F4F7FB",
"&.	c #F0F4FB",
"*.	c #EDF1F8",
"=.	c #EAEEF5",
"-.	c #DCE1E8",
";.	c #CDD4DB",
">.	c #E2E5EB",
",.	c #F0F2F7",
"'.	c #F4F7FA",
").	c #F6F8FC",
"!.	c #F2F7FE",
"~.	c #D6DDE3",
"{.	c #DDE2E8",
"].	c #E5EAEE",
"^.	c #EDF1F5",
"/.	c #DBE2E9",
"(.	c #D7DEE5",
"_.	c #D0D8DE",
"                                ",
"          . + @ # $ %           ",
"      & * = - ; > , ' )         ",
"    ! ~ - { { ] ^ / ( _ :       ",
"    < { { { { [ } | 1 _ 2 3     ",
"  4 5 { { { { 6 7 8 9 0 a b     ",
"  + { { { c d e f g h i j k l   ",
"  m { { { n o   p q r s t u v   ",
"  w { { { x o   y z A s t B C   ",
"  D { { { E F G H I J K L M N   ",
"  O P { P Q R S T U J t u V     ",
"    W { X Y Z ` j i j k  .l     ",
"    ..+.@.#.$.%.J &.*.=.-.      ",
"      ;.>.,.'.).!.s k ~.        ",
"          {.].^./.(._.          ",
"                                "};
