/* XPM */
static char * clear_xpm[] = {
"20 20 97 2",
"  	c None",
". 	c #B9B9B9",
"+ 	c #BCBCBC",
"@ 	c #BBBBBB",
"# 	c #B5B5B5",
"$ 	c #BABABA",
"% 	c #BDBDBD",
"& 	c #BEBEBE",
"* 	c #B6B6B6",
"= 	c #BFBFBF",
"- 	c #C4C4C4",
"; 	c #AEAEAE",
"> 	c #ABABAB",
", 	c #B8B8B8",
"' 	c #C7C7C7",
") 	c #C5C5C5",
"! 	c #E6E6E6",
"~ 	c #DBDBDB",
"{ 	c #D3D3D3",
"] 	c #CECECE",
"^ 	c #C6C6C6",
"/ 	c #CBCBCB",
"( 	c #D4D4D4",
"_ 	c #DCDCDC",
": 	c #EEEEEE",
"< 	c #C9C9C9",
"[ 	c #EAEAEA",
"} 	c #F2F2F2",
"| 	c #F7F7F7",
"1 	c #FBFBFB",
"2 	c #FAFAFA",
"3 	c #F6F6F6",
"4 	c #B8C6A5",
"5 	c #F1F1F0",
"6 	c #DBE1D3",
"7 	c #F9FAF9",
"8 	c #E9E9E8",
"9 	c #B7CE9F",
"0 	c #BCD1A7",
"a 	c #A3C881",
"b 	c #B4CF9A",
"c 	c #B5CC9C",
"d 	c #E4E8DE",
"e 	c #BFCBB1",
"f 	c #A6CC85",
"g 	c #71B13A",
"h 	c #86B75A",
"i 	c #6DAC36",
"j 	c #73AF40",
"k 	c #A9C18E",
"l 	c #EFEFEE",
"m 	c #AAC090",
"n 	c #96BE6F",
"o 	c #87B25D",
"p 	c #7D9B55",
"q 	c #B6C5A0",
"r 	c #6FA240",
"s 	c #72A643",
"t 	c #BECBAE",
"u 	c #D4D9CC",
"v 	c #DDE0D7",
"w 	c #82A65C",
"x 	c #629A2F",
"y 	c #A8BB91",
"z 	c #E4E5E2",
"A 	c #A2B887",
"B 	c #9CB67E",
"C 	c #DBE0D3",
"D 	c #B4C39D",
"E 	c #669738",
"F 	c #5A8E2B",
"G 	c #BECAAD",
"H 	c #B8C6A6",
"I 	c #B5D19C",
"J 	c #73A944",
"K 	c #7DA654",
"L 	c #5F972E",
"M 	c #5A8F2B",
"N 	c #7F9F5C",
"O 	c #EFF0EE",
"P 	c #C2C2C2",
"Q 	c #AFC09A",
"R 	c #98B57A",
"S 	c #76A14E",
"T 	c #6A9340",
"U 	c #89A768",
"V 	c #E3E8DD",
"W 	c #E7E7E7",
"X 	c #E7EAE2",
"Y 	c #FAFAF9",
"Z 	c #D5D5D5",
"` 	c #ADADAD",
" .	c #A2A2A2",
"..	c #AFAFAF",
"+.	c #C1C1C1",
"@.	c #B4B4B4",
"#.	c #A9A9A9",
"                                        ",
"                                        ",
"                  . +                   ",
"          @ # @ @ $ % & % * =           ",
"        - ; > > > > > > > > , '         ",
"        ) ! ~ { ] ^ / ( _ ! : <         ",
"        ) ! [ : } | 1 2 3 } : <         ",
"        ) ! [ : } | 1 2 3 } : <         ",
"        ) ! [ : } | 1 2 3 } : <         ",
"        ) ! [ 4 5 6 7 2 3 } : <         ",
"        ) ! 8 9 0 a b c d } : <         ",
"        ) ! e f g h i j k l : <         ",
"        ) ! m n o p q r s t : <         ",
"        ) ! u v 5 | 1 w x y : <         ",
"        ) ! z A B C D E F G : <         ",
"        ) ! H I J K L M N O : <         ",
"        P ! [ Q R S T U V } : )         ",
"          < W : } X Y 2 3 } Z `         ",
"             ..., +.' % @.#.            ",
"                                        "};
