/* XPM */
static char * mute1_xpm[] = {
"16 16 44 1",
" 	c None",
".	c #9E9E9E",
"+	c #A6A6A6",
"@	c #ACACAC",
"#	c #C8C8C8",
"$	c #A4A4A4",
"%	c #A8A8A8",
"&	c #D4D4D4",
"*	c #CECECE",
"=	c #A5A5A5",
"-	c #B9B9B9",
";	c #D0D0D0",
">	c #CFCFCF",
",	c #A0A0A0",
"'	c #939393",
")	c #8F8F8F",
"!	c #D7D7D7",
"~	c #B6B6B6",
"{	c #919191",
"]	c #868686",
"^	c #878787",
"/	c #8A8A8A",
"(	c #DBDBDB",
"_	c #C4C4C4",
":	c #B0B0B0",
"<	c #7F7F7F",
"[	c #828282",
"}	c #AAAAAA",
"|	c #D5D5D5",
"1	c #B7B7B7",
"2	c #777777",
"3	c #7C7C7C",
"4	c #ABABAB",
"5	c #9A9A9A",
"6	c #6F6F6F",
"7	c #707070",
"8	c #D9D9D9",
"9	c #A7A7A7",
"0	c #909090",
"a	c #D8D8D8",
"b	c #C5C5C5",
"c	c #DADADA",
"d	c #CCCCCC",
"e	c #C3C3C3",
"                ",
"                ",
"       .+       ",
"       @#$      ",
"       %&*=     ",
"       -;>>,')) ",
"       !>>>~{]^/",
"      @(___:<<<[",
"      }|111.2223",
"       |4445667<",
"       8%%90    ",
"       ab90     ",
"       cd{      ",
"       e1       ",
"                ",
"                "};
