/* XPM */
static char * next_xpm[] = {
"16 16 68 1",
" 	c None",
".	c #82A2BE",
"+	c #A9C4D7",
"@	c #A4C1D5",
"#	c #B5CCDD",
"$	c #6689AF",
"%	c #8EACC6",
"&	c #76A2C1",
"*	c #6C9CBD",
"=	c #8FB3CD",
"-	c #B3CBDD",
";	c #9DB7CE",
">	c #88A8C3",
",	c #74A1C1",
"'	c #8BB1CB",
")	c #8DB2CC",
"!	c #99B6CE",
"~	c #6B8DB2",
"{	c #81A3C0",
"]	c #72A0C0",
"^	c #87AEC9",
"/	c #86ADC9",
"(	c #6597BA",
"_	c #83ABC7",
":	c #82A2C0",
"<	c #7A9EBC",
"[	c #709EBF",
"}	c #83ACC8",
"|	c #81A9C6",
"1	c #6798BB",
"2	c #6F9DBE",
"3	c #85A7C4",
"4	c #5C81AA",
"5	c #7399B9",
"6	c #6E9DBE",
"7	c #7FA9C6",
"8	c #80A9C6",
"9	c #7FA7C5",
"0	c #6B8FB3",
"a	c #6C93B5",
"b	c #6C9BBD",
"c	c #7CA7C4",
"d	c #7FA8C6",
"e	c #79A4C3",
"f	c #7598BA",
"g	c #648EB1",
"h	c #6A9ABC",
"i	c #78A4C3",
"j	c #7BA6C4",
"k	c #7BA3C1",
"l	c #5C83AB",
"m	c #5C88AD",
"n	c #6899BB",
"o	c #74A2C1",
"p	c #6C95B7",
"q	c #5078A3",
"r	c #5582A9",
"s	c #6698BA",
"t	c #7CA6C4",
"u	c #5A82AB",
"v	c #507FA7",
"w	c #7099BA",
"x	c #5179A4",
"y	c #4E7CA5",
"z	c #6395B8",
"A	c #6A9ABB",
"B	c #709DBE",
"C	c #5F87AD",
"                ",
"                ",
" .+@#  $        ",
" %&*=  -;       ",
" >,*'  )*!~     ",
" {]*^  /((_:    ",
" <[*}  |111234  ",
" 56*7  86666690 ",
" ab*c  d,,,,,ef ",
" gh*i  8jjjjkl  ",
" mn*o  7777pq   ",
" rs*]  77tu     ",
" v(*]  7wx      ",
" yzAB  C        ",
"                ",
"                "};
