/* XPM */
static char * previous_xpm[] = {
"16 16 66 1",
" 	c None",
".	c #6587AE",
"+	c #ACC4D7",
"@	c #A3BFD4",
"#	c #A2BFD3",
"$	c #94B0C9",
"%	c #97B1CB",
"&	c #98B9D1",
"*	c #A0BED4",
"=	c #6F9EBF",
"-	c #74A2C1",
";	c #9BB6CD",
">	c #6589AF",
",	c #9DB9D0",
"'	c #719FC0",
")	c #6C9CBD",
"!	c #9ABAD1",
"~	c #95B1C9",
"{	c #7F9EBD",
"]	c #8AAFCA",
"^	c #6597BA",
"/	c #6B9BBD",
"(	c #93B6CE",
"_	c #8CABC5",
":	c #587EA8",
"<	c #8AAAC6",
"[	c #76A2C1",
"}	c #6A9ABC",
"|	c #6F9DBE",
"1	c #8DB1CB",
"2	c #85A6C2",
"3	c #678BB0",
"4	c #86AAC6",
"5	c #719FBF",
"6	c #709FBF",
"7	c #74A1C1",
"8	c #86ADC8",
"9	c #7C9FBD",
"0	c #6489AF",
"a	c #83AAC7",
"b	c #76A3C2",
"c	c #79A5C3",
"d	c #7FA8C5",
"e	c #7499B9",
"f	c #557CA6",
"g	c #799FBE",
"h	c #7EA9C6",
"i	c #7CA7C5",
"j	c #7DA8C6",
"k	c #78A3C2",
"l	c #6C93B5",
"m	c #6187AE",
"n	c #80A9C5",
"o	c #7FA9C6",
"p	c #628CB0",
"q	c #5279A5",
"r	c #729CBD",
"s	c #6189AF",
"t	c #7EA8C5",
"u	c #6697BA",
"v	c #5179A4",
"w	c #6596B9",
"x	c #608BAF",
"y	c #4A78A1",
"z	c #4D7AA3",
"A	c #4E7BA3",
"                ",
"                ",
"        .  +@#$ ",
"       %&  *=-; ",
"     >,')  !=-~ ",
"    {]^^/  (=-_ ",
"  :<[}}}|  1=-2 ",
" 34566667  8=-9 ",
" 0abbbbbc  d=-e ",
"  fghiiij  k=-l ",
"    mnooo  5=-p ",
"     qroo  }=-p ",
"       st  u=-p ",
"        v  w=-x ",
"           yzA  ",
"                "};
