/* XPM */
static char * remove_xpm[] = {
"16 16 85 1",
" 	c None",
".	c #920000",
"+	c #950404",
"@	c #920101",
"#	c #970C0C",
"$	c #930000",
"%	c #CF0101",
"&	c #A90B0B",
"*	c #990F0F",
"=	c #CC4040",
"-	c #BF4E4E",
";	c #940000",
">	c #B00404",
",	c #CF0303",
"'	c #AA1212",
")	c #930101",
"!	c #920606",
"~	c #C13C3C",
"{	c #D20D0D",
"]	c #C44C4C",
"^	c #950202",
"/	c #BD0A0A",
"(	c #D00404",
"_	c #B51C1C",
":	c #971010",
"<	c #9E1717",
"[	c #CB3B3B",
"}	c #D10C0C",
"|	c #C93F3F",
"1	c #980D0D",
"2	c #CC0D0D",
"3	c #CF0202",
"4	c #D01313",
"5	c #BE2424",
"6	c #D11313",
"7	c #CF3131",
"8	c #9B1515",
"9	c #AA1111",
"0	c #D00303",
"a	c #CF0000",
"b	c #D21313",
"c	c #A82828",
"d	c #970808",
"e	c #D10B0B",
"f	c #CB2F2F",
"g	c #990A0A",
"h	c #D10909",
"i	c #C22F2F",
"j	c #A91111",
"k	c #CE2626",
"l	c #9A0E0E",
"m	c #950505",
"n	c #CC0C0C",
"o	c #D00707",
"p	c #CA1F1F",
"q	c #B31F1F",
"r	c #D11A1A",
"s	c #D00606",
"t	c #B43939",
"u	c #C20909",
"v	c #D00505",
"w	c #AB1717",
"x	c #8F0000",
"y	c #9C1414",
"z	c #CF2A2A",
"A	c #CF1414",
"B	c #B43D3D",
"C	c #950000",
"D	c #C80404",
"E	c #A91212",
"F	c #9B1717",
"G	c #D12A2A",
"H	c #C14D4D",
"I	c #991212",
"J	c #C10000",
"K	c #AB0C0C",
"L	c #940303",
"M	c #AC2D2D",
"N	c #D41D1D",
"O	c #CC4949",
"P	c #9C1616",
"Q	c #A50505",
"R	c #900101",
"S	c #B53939",
"T	c #970B0B",
"                ",
"  .+@       #   ",
"  $%&      *=-  ",
"  ;>,')   !~{]^ ",
"   )/(_: <[}|1  ",
"    +23456378   ",
"     90aaabc    ",
"     deaaaf^    ",
"     ghaaai     ",
"     j3a0akl    ",
"    mnopqrst    ",
"   ^uvwx yzAB   ",
"  CD3E@   FG{HI ",
" $J,KL     MNOP ",
"  $QR       ST  ",
"                "};
