/* XPM */
static char * stop_xpm[] = {
"16 16 37 1",
" 	c None",
".	c #829EBE",
"+	c #ADC3D6",
"@	c #98B1CA",
"#	c #A9BED3",
"$	c #6597BA",
"%	c #A9C1D5",
"&	c #9DB6CE",
"*	c #6698BB",
"=	c #9FBAD1",
"-	c #93ADC7",
";	c #699ABC",
">	c #96B4CD",
",	c #88A6C3",
"'	c #6C9CBD",
")	c #8EADC8",
"!	c #7D9EBD",
"~	c #6F9EBF",
"{	c #85A7C4",
"]	c #7396B8",
"^	c #72A0C0",
"/	c #7CA1C0",
"(	c #688DB1",
"_	c #75A2C1",
":	c #749BBB",
"<	c #5D85AD",
"[	c #78A4C3",
"}	c #6C95B8",
"|	c #5A82AB",
"1	c #7BA6C4",
"2	c #6A94B7",
"3	c #5B83AB",
"4	c #7EA8C5",
"5	c #6C96B8",
"6	c #4E75A2",
"7	c #638BB1",
"8	c #5880A9",
"                ",
"                ",
"  .++++++++++@  ",
"  #$$$$$$$$$$%  ",
"  &**********=  ",
"  -;;;;;;;;;;>  ",
"  ,'''''''''')  ",
"  !~~~~~~~~~~{  ",
"  ]^^^^^^^^^^/  ",
"  (__________:  ",
"  <[[[[[[[[[[}  ",
"  |11111111112  ",
"  344444444445  ",
"  677777777778  ",
"                ",
"                "};
