/* XPM */
static char * upload_xpm[] = {
"16 16 60 1",
" 	c None",
".	c #025D02",
"+	c #0E650E",
"@	c #186B18",
"#	c #3C833C",
"$	c #3C903C",
"%	c #478547",
"&	c #166916",
"*	c #388B38",
"=	c #208F20",
"-	c #048704",
";	c #018601",
">	c #458445",
",	c #0A620A",
"'	c #3D8F3D",
")	c #068806",
"!	c #008600",
"~	c #038703",
"{	c #438343",
"]	c #045F04",
"^	c #368936",
"/	c #1A8E1A",
"(	c #1A8D1A",
"_	c #428242",
":	c #2D7B2D",
"<	c #088908",
"[	c #0F8B0F",
"}	c #387E38",
"|	c #397D39",
"1	c #357A35",
"2	c #237423",
"3	c #0E8A0E",
"4	c #398A39",
"5	c #005C00",
"6	c #1E6F1E",
"7	c #0F890F",
"8	c #2F8E2F",
"9	c #0C640C",
"0	c #015D01",
"a	c #1A6E1A",
"b	c #0A860A",
"c	c #1F8D1F",
"d	c #176B17",
"e	c #086108",
"f	c #157715",
"g	c #168C16",
"h	c #1E701E",
"i	c #005D00",
"j	c #015B01",
"k	c #096E09",
"l	c #098609",
"m	c #198B19",
"n	c #186C18",
"o	c #037A03",
"p	c #0A870A",
"q	c #1F7D1F",
"r	c #0C620C",
"s	c #087308",
"t	c #0F720F",
"u	c #0F670F",
"                ",
"             .+ ",
"           @#$% ",
"         &*=-;> ",
"         ,')!~{ ",
"         ]^;/(_ ",
"         :<[}|1 ",
"        23-4] 5 ",
"       67!89    ",
"     0ab!cd     ",
"    ef-!gh      ",
" ijkl!!mn       ",
" 5o!!pqr        ",
"  0stu          ",
"                ",
"                "};
