/* XPM */
static char * info_xpm[] = {
"16 16 135 2",
"  	c None",
". 	c #5F839E",
"+ 	c #8CA7BB",
"@ 	c #829FB5",
"# 	c #517895",
"$ 	c #7595AD",
"% 	c #97B2C9",
"& 	c #8CACC8",
"* 	c #779CBD",
"= 	c #7298BA",
"- 	c #7A9DBD",
"; 	c #6C90B1",
"> 	c #4A7493",
", 	c #85A2B8",
"' 	c #86A7C6",
") 	c #7BA1C2",
"! 	c #7CA1C2",
"~ 	c #829EB9",
"{ 	c #A9B8C6",
"] 	c #7C9CB9",
"^ 	c #6F95B8",
"/ 	c #668DB1",
"( 	c #3A688A",
"_ 	c #7D9BB2",
": 	c #82A4C3",
"< 	c #769EC0",
"[ 	c #7AA1C3",
"} 	c #7BA1C4",
"| 	c #A6B5C5",
"1 	c #FFFFFF",
"2 	c #AEC2D3",
"3 	c #6A92B6",
"4 	c #648DB2",
"5 	c #517EA5",
"6 	c #366385",
"7 	c #96B2C9",
"8 	c #6792B9",
"9 	c #749CC0",
"0 	c #79A1C5",
"a 	c #7AA2C6",
"b 	c #7FA1BF",
"c 	c #B6CBDD",
"d 	c #749ABD",
"e 	c #658EB4",
"f 	c #5E89AF",
"g 	c #517EA6",
"h 	c #3C6B93",
"i 	c #6B8DA7",
"j 	c #789DBE",
"k 	c #5F8CB5",
"l 	c #6D97BD",
"m 	c #7197BC",
"n 	c #8AA3BC",
"o 	c #94AABE",
"p 	c #6E94B4",
"q 	c #638EB5",
"r 	c #5D88B0",
"s 	c #5684AB",
"t 	c #4878A1",
"u 	c #406F99",
"v 	c #356082",
"w 	c #8CA7BC",
"x 	c #5987AF",
"y 	c #5B89B2",
"z 	c #618EB6",
"A 	c #7291AC",
"B 	c #94A8BA",
"C 	c #B8C7D4",
"D 	c #5A88B1",
"E 	c #5382AB",
"F 	c #4C7BA5",
"G 	c #4575A0",
"H 	c #43729D",
"I 	c #325D7F",
"J 	c #85A2B7",
"K 	c #5483AC",
"L 	c #5785AF",
"M 	c #5C89B2",
"N 	c #5E8CB4",
"O 	c #7392AF",
"P 	c #BAC8D5",
"Q 	c #4F7EA8",
"R 	c #4978A3",
"S 	c #43739E",
"T 	c #315A7C",
"U 	c #6185A0",
"V 	c #638DB2",
"W 	c #5381AB",
"X 	c #5684AD",
"Y 	c #5886AF",
"Z 	c #8EA5BA",
"` 	c #9AB1C7",
" .	c #507FA8",
"..	c #4B7AA5",
"+.	c #4676A0",
"@.	c #3E6C96",
"#.	c #325C7E",
"$.	c #6B92B1",
"%.	c #4D7CA6",
"&.	c #507FA9",
"*.	c #5280AA",
"=.	c #AEBCC8",
"-.	c #7197B9",
";.	c #4B7AA4",
">.	c #4776A1",
",.	c #366188",
"'.	c #587E9B",
").	c #4F7DA6",
"!.	c #4A79A4",
"~.	c #4B79A4",
"{.	c #C6CFD7",
"].	c #FDFDFD",
"^.	c #7196B7",
"/.	c #5480A7",
"(.	c #3F6D97",
"_.	c #305A7A",
":.	c #4E7797",
"<.	c #44749F",
"[.	c #45759F",
"}.	c #7192B0",
"|.	c #C5D1DD",
"1.	c #B7CADA",
"2.	c #5A84AA",
"3.	c #41709A",
"4.	c #2E587A",
"5.	c #386689",
"6.	c #3F6E97",
"7.	c #42719C",
"8.	c #3F6E98",
"9.	c #38658B",
"0.	c #2F597A",
"a.	c #356183",
"b.	c #335E81",
"c.	c #305A7B",
"d.	c #325D7E",
"                                ",
"            . + @ #             ",
"        $ % & * = - ; >         ",
"      , ' ) ! ~ { ] ^ / (       ",
"    _ : < [ } | 1 2 3 4 5 6     ",
"    7 8 9 0 a b c d e f g h     ",
"  i j k l m n o p q r s t u v   ",
"  w x y z A B 1 C D E F G H I   ",
"  J K L M N O 1 P K Q R S H T   ",
"  U V W X Y Z 1 `  ...+.S @.#.  ",
"    $.%.&.*.=.1 -.;.>.S S ,.    ",
"    '.).!.~.{.].^./.S S (._.    ",
"      :.<.[.}.|.1.2.S 3.4.      ",
"        5.6.7.S S 8.9.0.        ",
"            a.b.c.d.            ",
"                                "};
