/* XPM */
static char * mute2_xpm[] = {
"16 16 82 1",
" 	c None",
".	c #9E9E9E",
"+	c #A6A6A6",
"@	c #ACACAC",
"#	c #C8C8C8",
"$	c #A4A4A4",
"%	c #C16D6D",
"&	c #C47676",
"*	c #C07474",
"=	c #B38B8B",
"-	c #D4D4D4",
";	c #CECECE",
">	c #A5A5A5",
",	c #E0B3B3",
"'	c #E3B5B5",
")	c #C77C7C",
"!	c #DEABAB",
"~	c #D6A1A1",
"{	c #CCC2C2",
"]	c #CFCFCF",
"^	c #A0A0A0",
"/	c #939393",
"(	c #8F8F8F",
"_	c #C88181",
":	c #DDA6A6",
"<	c #CD8A8A",
"[	c #D89C9C",
"}	c #D69595",
"|	c #C48383",
"1	c #CFCECE",
"2	c #B6B6B6",
"3	c #919191",
"4	c #868686",
"5	c #878787",
"6	c #8A8A8A",
"7	c #C77F7F",
"8	c #D69191",
"9	c #D58686",
"0	c #D28484",
"a	c #B76B6B",
"b	c #DBDADA",
"c	c #C4C4C4",
"d	c #B0B0B0",
"e	c #7F7F7F",
"f	c #828282",
"g	c #BE6969",
"h	c #CE7A7A",
"i	c #CD6F6F",
"j	c #C76A6A",
"k	c #AD5D5D",
"l	c #D5D5D5",
"m	c #B7B7B7",
"n	c #777777",
"o	c #7C7C7C",
"p	c #BD6565",
"q	c #C86C6C",
"r	c #C36060",
"s	c #B24D4D",
"t	c #C15555",
"u	c #BD5353",
"v	c #BE7E7E",
"w	c #ABABAB",
"x	c #9A9A9A",
"y	c #6F6F6F",
"z	c #707070",
"A	c #BF6464",
"B	c #C25B5B",
"C	c #AE4242",
"D	c #C05555",
"E	c #B85656",
"F	c #A89D9D",
"G	c #A8A8A8",
"H	c #A7A7A7",
"I	c #909090",
"J	c #AD4141",
"K	c #AD4242",
"L	c #AA4747",
"M	c #C18A8A",
"N	c #C5C5C5",
"O	c #DADADA",
"P	c #CCCCCC",
"Q	c #C3C3C3",
"                ",
"                ",
"       .+       ",
"       @#$      ",
" %&   *=-;>     ",
" ,') )!~{]]^/(( ",
" _::<[}|1]]23456",
"  7890abcccdeeef",
"  ghijklmmm.nnno",
" pqrstuvwwwxyyze",
" ABC CDEFGHI    ",
" JK   LMNHI     ",
"       OP3      ",
"       Qm       ",
"                ",
"                "};
