/* XPM */
static char * pause_xpm[] = {
"16 16 65 1",
" 	c None",
".	c #9DB7CD",
"+	c #A4BCD1",
"@	c #A5BDD2",
"#	c #A7BED2",
"$	c #7B9DBB",
"%	c #8DAAC4",
"&	c #A0BED4",
"*	c #6698BB",
"=	c #6C9CBE",
"-	c #90B4CD",
";	c #7B9CBB",
">	c #6597BA",
",	c #6B9BBD",
"'	c #719FC0",
")	c #9DB8CE",
"!	c #99B9D1",
"~	c #8CB2CB",
"{	c #7699B9",
"]	c #9CB7CD",
"^	c #96B3CA",
"/	c #91B4CD",
"(	c #88AFCA",
"_	c #7195B6",
":	c #93B0C9",
"<	c #8DADC6",
"[	c #89AFCA",
"}	c #84ADC8",
"|	c #6C91B3",
"1	c #8AAAC4",
"2	c #85A7C2",
"3	c #81A9C6",
"4	c #80AAC6",
"5	c #668CB0",
"6	c #80A2BF",
"7	c #7DA1BE",
"8	c #7AA4C3",
"9	c #7CA7C4",
"0	c #6088AD",
"a	c #769BBA",
"b	c #759BBA",
"c	c #729FBF",
"d	c #78A5C2",
"e	c #5B84AA",
"f	c #6B93B5",
"g	c #6C95B6",
"h	c #6B9ABC",
"i	c #75A2C1",
"j	c #547FA7",
"k	c #608BAF",
"l	c #648FB1",
"m	c #6395B9",
"n	c #73A1C0",
"o	c #5784AA",
"p	c #618DB0",
"q	c #6294B8",
"r	c #5281A8",
"s	c #5180A8",
"t	c #5483AA",
"u	c #5785AC",
"v	c #5B88AD",
"w	c #4C7AA3",
"x	c #5785AB",
"y	c #5A87AD",
"z	c #537FA6",
"                ",
"                ",
"   .+@#  $+@#%  ",
"   &*=-; +>,')  ",
"   !*=~{ ]>,'^  ",
"   /*=(_ :>,'<  ",
"   [*=}| 1>,'2  ",
"   3*=45 6>,'7  ",
"   8*=90 a>,'b  ",
"   c*=de f>,'g  ",
"   h*=ij k>,'l  ",
"   m*=nj o>,'p  ",
"   q*=nj r>,'p  ",
"   stuv  wtxyz  ",
"                ",
"                "};
