/* XPM */
static char * play_xpm[] = {
"16 16 53 1",
" 	c None",
".	c #487F35",
"+	c #95B588",
"@	c #9FBD93",
"#	c #9ABA8E",
"$	c #70A257",
"%	c #A4C396",
"&	c #739D63",
"*	c #90B383",
"=	c #5F9743",
"-	c #85AF6F",
";	c #94B685",
">	c #558842",
",	c #85AC77",
"'	c #649A49",
")	c #8BB278",
"!	c #76A066",
"~	c #7CA56C",
"{	c #629A46",
"]	c #72A458",
"^	c #84AD72",
"/	c #5A8C49",
"(	c #739F61",
"_	c #679F4B",
":	c #689F4C",
"<	c #7CAB65",
"[	c #709E5E",
"}	c #699957",
"|	c #6DA551",
"1	c #73A858",
"2	c #7BAA66",
"3	c #52883F",
"4	c #60954C",
"5	c #72AB56",
"6	c #73AB57",
"7	c #74A85B",
"8	c #5B8F47",
"9	c #589043",
"0	c #77B05B",
"a	c #76AF5B",
"b	c #609848",
"c	c #4E853B",
"d	c #5A9245",
"e	c #7DB661",
"f	c #71AA58",
"g	c #538A3F",
"h	c #5D9447",
"i	c #82BB66",
"j	c #7FB864",
"k	c #5E9648",
"l	c #6EA455",
"m	c #52893E",
"n	c #4E863B",
"                ",
"   .            ",
"   +@           ",
"   #$%&         ",
"   *==-;>       ",
"   ,===')!      ",
"   ~{{{{{]^/    ",
"   (______:<[   ",
"   }|||||||123  ",
"   455555678    ",
"   90000abc     ",
"   deeefg       ",
"   hijk         ",
"   hlm          ",
"   n            ",
"                "};
